<svg width="68" height="36" viewBox="0 0 68 36" fill="none" xmlns="http://www.w3.org/2000/svg">
<path d="M0 24.4648C0 24.4648 11.1656 4.01737 16.2407 6.77972C21.3146 9.54332 29.6309 21.9625 29.6309 21.9625V18.3909L33.4528 20.772L35.3656 17.4983L36.7323 21.0699C36.7323 21.0699 40.0906 -2.06281 49.2241 0.149081C58.3599 2.35845 68 15.6235 68 15.6235C68 15.6235 56.6338 12.7804 56.1284 17.2016C55.6207 21.6216 56.4008 26.1275 56.4008 26.1275C56.4008 26.1275 52.3041 20.1331 48.7534 23.4497C45.1992 26.765 45.474 31.4805 45.474 31.4805C45.474 31.4805 39.8935 26.1237 38.3726 29.9932C36.8494 33.8615 34.3141 31.9918 31.27 30.8858C28.2236 29.7811 26.8986 35.6454 26.8986 35.6454C26.8986 35.6454 19.7926 23.3614 13.702 32.2026C13.702 32.2026 12.1788 15.0718 0 24.4648" fill="white"/>
</svg>
